<?xml version="1.0" standalone="no"?>
<!DOCTYPE svg PUBLIC "-//W3C//DTD SVG 20010904//EN"
 "http://www.w3.org/TR/2001/REC-SVG-20010904/DTD/svg10.dtd">
<svg version="1.0" xmlns="http://www.w3.org/2000/svg"
 width="512.000000pt" height="512.000000pt" viewBox="0 0 512.000000 512.000000"
 preserveAspectRatio="xMidYMid meet">
<metadata>
Created by potrace 1.11, written by Peter Selinger 2001-2013
</metadata>
<g transform="translate(0.000000,512.000000) scale(0.100000,-0.100000)"
fill="#000000" stroke="none">
<path d="M1105 4427 c-50 -16 -96 -57 -119 -106 -18 -39 -21 -64 -20 -166 0
-66 6 -147 14 -180 18 -83 18 -83 24 -425 4 -168 9 -404 12 -525 12 -501 13
-467 -9 -503 -66 -112 -99 -226 -99 -348 -1 -168 72 -359 192 -504 37 -45 43
-62 56 -150 3 -25 8 -52 9 -60 2 -8 4 -27 4 -42 1 -30 1 -31 382 -398 133
-129 265 -257 292 -284 l48 -49 657 1 c361 0 662 1 668 1 13 1 27 14 369 346
380 368 365 352 366 383 1 15 3 36 5 47 1 11 5 38 9 60 3 22 7 49 10 60 2 11
4 23 4 26 1 4 22 33 47 65 95 122 167 284 180 402 3 37 8 74 9 82 5 34 -15
159 -35 219 -24 68 -34 89 -65 135 -22 33 -23 64 -11 516 3 135 8 376 12 535
6 317 6 324 28 440 19 102 15 256 -8 310 -46 109 -144 145 -231 85 -122 -84
-138 -257 -42 -459 l31 -66 1 -265 c0 -146 -2 -294 -3 -329 l-4 -65 -40 79
c-136 269 -363 486 -648 618 -86 40 -272 99 -388 124 -109 23 -151 26 -302 27
-129 0 -197 -5 -260 -18 -47 -9 -96 -20 -110 -22 -64 -13 -241 -79 -321 -120
-254 -131 -449 -344 -556 -608 l-33 -81 -1 90 c-1 50 -2 198 -2 330 l0 241 28
59 c99 210 83 384 -43 468 -48 31 -70 36 -107 24z"/>
</g>
</svg>
